<?xml version="1.0" encoding="utf-8"?>
	<svg version="1.0" id="Layer_1" xmlns="http://www.w3.org/2000/svg" xmlns:xlink="http://www.w3.org/1999/xlink" xml:space="preserve">
	<g>
		<path d="M52.5,59C74.8,59,93,77.2,93,99.5S74.8,140,52.5,140S12,121.8,12,99.5S30.2,59,52.5,59 M52.5,49C24.6,49,2,71.6,2,99.5
			S24.6,150,52.5,150S103,127.4,103,99.5S80.4,49,52.5,49L52.5,49z"/>
	</g>
	<g>
		<path d="M147.5,59c22.3,0,40.5,18.2,40.5,40.5S169.8,140,147.5,140S107,121.8,107,99.5S125.2,59,147.5,59 M147.5,49
			C119.6,49,97,71.6,97,99.5s22.6,50.5,50.5,50.5S198,127.4,198,99.5S175.4,49,147.5,49L147.5,49z"/>
	</g>
</svg>
